<?xml version="1.0" encoding="UTF-8" standalone="no"?>
<svg xmlns="http://www.w3.org/2000/svg" width="281" height="200" preserveAspectRatio="xMinYMin meet" viewport="0 0 720 490" style="">
    <rect id="backgroundrect" width="100%" height="100%" x="0" y="0" fill="none" stroke="none" style="" class=""/>
    <title>Drizzle Logo</title>
    <style type="text/css">
        .arduino {
          fill: none;
          stroke: #00979c;
          stroke-width: 1;
        }
    </style>

    <g class="currentLayer-vectorpaint.yaks.co.nz" style="">
        <title>Layer 1</title>
        <g class="drizzleLogoLayer" style="" id="svg_6" fill-opacity="1" fill="#6894d6">
            <g class="waterDropsLayer" style="" id="svg_2" fill="#6894d6">
                <g class="waterdrop" id="drop1_1" fill="#6894d6" stroke="#049D9D" stroke-opacity="1" stroke-width="0">
                    <path d="M122.12044525146484,85.11459630727768 c2.1210787296295166,-1.214560627937317 2.4240896701812744,-2.2671797275543213 1.6665617227554321,-4.291447162628174 c-1.5150561332702637,-3.6436820030212402 -5.454202175140381,-8.744836807250977 -6.6662468910217285,-8.744836807250977 c-1.5150561332702637,0 -6.211730480194092,8.1780424118042 -6.211730480194092,10.7691068649292 c0,1.2955315113067627 1.2120448350906372,2.429121255874634 2.8786067962646484,2.9959161281585693 c4.090651035308838,1.1335898637771606 5.302696704864502,1.052619218826294 8.332808494567871,-0.7287363409996033 z"
                          id="drop_p1" fill="#6894d6" stroke-width="0"/>
                </g>
            </g>
            <g class="waterDropsLayer" style="" id="svg_22" fill="#6894d6">
                <g class="waterdrop" id="drop1_2" fill="#6894d6" stroke="#049D9D" stroke-opacity="1" stroke-width="0">
                    <path d="M133.28875732421875,104.05903905630112 c2.1210787296295166,-1.214560627937317 2.4240896701812744,-2.2671797275543213 1.6665617227554321,-4.291447162628174 c-1.5150561332702637,-3.6436820030212402 -5.454202175140381,-8.744836807250977 -6.6662468910217285,-8.744836807250977 c-1.5150561332702637,0 -6.211730480194092,8.1780424118042 -6.211730480194092,10.7691068649292 c0,1.2955315113067627 1.2120448350906372,2.429121255874634 2.8786067962646484,2.9959161281585693 c4.090651035308838,1.1335898637771606 5.302696704864502,1.052619218826294 8.332808494567871,-0.7287363409996033 z"
                          id="drop_p1" fill="#6894d6" stroke-width="0"/>
                </g>
            </g>
            <g class="waterDropsLayer" style="" id="svg_30" fill="#6894d6">
                <g class="waterdrop" id="drop1_3" fill="#6894d6" stroke="#049D9D" stroke-opacity="1" stroke-width="0">
                    <path d="M152.13082885742188,104.13211339712143 c2.1263251304626465,-1.2175647020339966 2.4300854206085205,-2.272787570953369 1.6706838607788086,-4.302062034606934 c-1.5188034772872925,-3.6526944637298584 -5.467693328857422,-8.766467094421387 -6.682735443115234,-8.766467094421387 c-1.5188034772872925,0 -6.227095127105713,8.198269844055176 -6.227095127105713,10.795742988586426 c0,1.2987359762191772 1.2150427103042603,2.435129404067993 2.8857269287109375,3.003326416015625 c4.10076904296875,1.1363937854766846 5.315812110900879,1.0552228689193726 8.353419303894043,-0.7305388450622559 z"
                          id="drop_p1" fill="#6894d6" stroke-width="0"/>
                </g>
            </g>
            <g class="waterDropsLayer" style="" id="svg_34" fill="#6894d6">
                <g class="waterdrop" id="drop1_4" fill="#6894d6" stroke="#049D9D" stroke-opacity="1" stroke-width="0">
                    <path d="M171.88406372070312,104.32785314321518 c2.1363699436187744,-1.2233165502548218 2.441565752029419,-2.283524513244629 1.6785763502120972,-4.322385787963867 c-1.5259785652160645,-3.669950008392334 -5.493523120880127,-8.807879447937012 -6.714305400848389,-8.807879447937012 c-1.5259785652160645,0 -6.256512641906738,8.23699951171875 -6.256512641906738,10.846742630004883 c0,1.3048712015151978 1.2207828760147095,2.4466331005096436 2.8993592262268066,3.017514228820801 c4.120141983032227,1.1417622566223145 5.3409247398376465,1.0602078437805176 8.392882347106934,-0.7339900135993958 z"
                          id="drop_p1" fill="#6894d6" stroke-width="0"/>
                </g>
            </g>
            <g class="waterDropsLayer" style="" id="svg_10" fill="#6894d6">
                <g class="waterdrop" id="drop2_1" fill="#6894d6" stroke="#049D9D" stroke-opacity="1" stroke-width="0">
                    <path d="M181.9037322998047,85.1146268248558 c2.1210787296295166,-1.214560627937317 2.4240896701812744,-2.2671797275543213 1.6665617227554321,-4.291447162628174 c-1.5150561332702637,-3.6436820030212402 -5.454202175140381,-8.744836807250977 -6.6662468910217285,-8.744836807250977 c-1.5150561332702637,0 -6.211730480194092,8.1780424118042 -6.211730480194092,10.7691068649292 c0,1.2955315113067627 1.2120448350906372,2.429121255874634 2.8786067962646484,2.9959161281585693 c4.090651035308838,1.1335898637771606 5.302696704864502,1.052619218826294 8.332808494567871,-0.7287363409996033 z"
                          id="drop_p1" fill="#6894d6" stroke-width="0"/>
                </g>
            </g>
            <g class="waterDropsLayer" style="" id="svg_4" fill="#6894d6">
                <g class="waterdrop" id="drop2_2" fill="#6894d6" stroke="#049D9D" stroke-opacity="1" stroke-width="0">
                    <path d="M140.96250915527344,85.18767827749252 c2.1263251304626465,-1.2175647020339966 2.4300854206085205,-2.272787570953369 1.6706838607788086,-4.302062034606934 c-1.5188034772872925,-3.6526944637298584 -5.467693328857422,-8.766467094421387 -6.682735443115234,-8.766467094421387 c-1.5188034772872925,0 -6.227095127105713,8.198269844055176 -6.227095127105713,10.795742988586426 c0,1.2987359762191772 1.2150427103042603,2.435129404067993 2.8857269287109375,3.003326416015625 c4.10076904296875,1.1363937854766846 5.315812110900879,1.0552228689193726 8.353419303894043,-0.7305388450622559 z"
                          id="drop_p1" fill="#6894d6" stroke-width="0"/>
                </g>
            </g>
            <g class="waterDropsLayer" style="" id="svg_5" fill="#6894d6">
                <g class="waterdrop" id="drop2_3" fill="#6894d6" stroke="#049D9D" stroke-opacity="1" stroke-width="0">
                    <path d="M160.71572875976562,85.38341802358627 c2.1363699436187744,-1.2233165502548218 2.441565752029419,-2.283524513244629 1.6785763502120972,-4.322385787963867 c-1.5259785652160645,-3.669950008392334 -5.493523120880127,-8.807879447937012 -6.714305400848389,-8.807879447937012 c-1.5259785652160645,0 -6.256512641906738,8.23699951171875 -6.256512641906738,10.846742630004883 c0,1.3048712015151978 1.2207828760147095,2.4466331005096436 2.8993592262268066,3.017514228820801 c4.120141983032227,1.1417622566223145 5.3409247398376465,1.0602078437805176 8.392882347106934,-0.7339900135993958 z"
                          id="drop_p1" fill="#6894d6" stroke-width="0"/>
                </g>
            </g>
        </g>
        <g class="arduinoLogo" style="" id="svg_3">
            <path id="infinity" class="arduino" style="stroke-width:10"
                  d="M101.00973510742188,13.80264562368393 C78.97067260742188,12.587625443935394 60.45188903808594,30.61680120229721 69.56366729736328,44.599211633205414 C78.36233520507812,59.74480336904526 111.52354431152344,63.872927606105804 127.32781982421875,51.725989282131195 C142.60122680664062,41.36952489614487 148.50146484375,25.482695519924164 167.0924530029297,17.29077810049057 C186.1100311279297,8.312426030635834 216.75421142578125,16.78941434621811 220.35693359375,32.76190084218979 C223.978271484375,48.056712090969086 200.1732635498047,62.955210626125336 178.563720703125,58.421179711818695 C162.6342315673828,55.929541528224945 151.1722412109375,46.52451604604721 144.65066528320312,36.63814061880112 C136.64767456054688,27.176964700222015 126.18487548828125,17.095854699611664 109.86358642578125,14.43558019399643 C106.96330261230469,13.980410516262054 103.98187255859375,13.800555169582367 101.00973510742188,13.80264562368393 z"/>
            <path id="minus" class="arduino" d="M87.09291076660156,35.735945641994476 h28.510522842407227 " style="stroke-width:8;"/>
            <path id="plus" class="arduino"
                  d="M174.52513122558594,35.735945641994476 h23.75876808166504 m-12.116971015930176,-11.5608491897583 v23.1216983795166 "
                  style="stroke-width:8;"/>
        </g>
        <g id="puddle" fill="#6894d6" stroke="none" class="" fill-opacity="1">
            <path d="m213.33829015493393,179.50296020507812 c18.360103607177734,-3.1999549865722656 32.32413101196289,-7.999887943267822 32.32413101196289,-10.933180809020996 c0,-1.066651701927185 4.39608097076416,-2.3999667167663574 9.826533317565918,-2.3999667167663574 c5.171860694885254,-0.26666292548179626 7.499197006225586,-0.7999887466430664 5.171860694885254,-1.5999774932861328 c-6.723418235778809,-1.8666404485702515 -5.689046382904053,-5.866584777832031 1.8101508617401123,-7.733225345611572 c6.982011318206787,-1.8666404485702515 8.79216194152832,-6.399909973144531 2.585930347442627,-6.399909973144531 c-2.06874418258667,0 -3.878894805908203,1.3333146572113037 -3.878894805908203,2.6666293144226074 c0,1.5999774932861328 -2.3273372650146484,2.6666293144226074 -5.171860694885254,2.6666293144226074 c-2.8445231914520264,0 -5.171860694885254,1.066651701927185 -5.171860694885254,2.13330340385437 c0,3.733280897140503 -23.273374557495117,13.066482543945312 -44.7365837097168,17.866416931152344 c-39.047542572021484,9.066539764404297 -121.79730224609375,1.3333146572113037 -149.98394775390625,-13.866472244262695 c-7.240603446960449,-3.733280897140503 -11.378092765808105,-5.066596031188965 -25.08352279663086,-7.999887943267822 c-10.602313041687012,-2.13330340385437 11.378092765808105,9.066539764404297 29.479598999023438,14.933123588562012 c44.99518585205078,14.933123588562012 104.21298217773438,19.19973373413086 152.82847595214844,10.66651725769043 zm59.217796325683594,3.1999549865722656 c1.034372091293335,-1.3333146572113037 0.25859302282333374,-2.9332923889160156 -1.2929651737213135,-3.466618061065674 c-2.06874418258667,-0.7999887466430664 -1.551558256149292,-2.3999667167663574 1.034372091293335,-5.333258628845215 c2.3273372650146484,-2.13330340385437 3.3617091178894043,-4.799933433532715 2.585930347442627,-5.866584777832031 c-0.775779128074646,-0.7999887466430664 0.5171860456466675,-3.999943971633911 3.103116512298584,-6.933236122131348 c5.171860694885254,-5.866584777832031 4.13748836517334,-9.066539764404297 -2.06874418258667,-6.399909973144531 c-2.3273372650146484,0.7999887466430664 -3.3617091178894043,3.1999549865722656 -2.585930347442627,5.333258628845215 c0.775779128074646,2.13330340385437 0,3.733280897140503 -1.551558256149292,3.733280897140503 c-1.551558256149292,0 -2.06874418258667,1.5999774932861328 -1.551558256149292,3.466618061065674 c2.06874418258667,5.333258628845215 -2.06874418258667,9.333203315734863 -10.343721389770508,10.66651725769043 c-7.499197006225586,1.066651701927185 -7.499197006225586,1.066651701927185 1.2929651737213135,1.5999774932861328 c6.982011318206787,0.26666292548179626 8.016383171081543,1.066651701927185 5.171860694885254,2.9332923889160156 c-3.3617091178894043,2.13330340385437 -3.3617091178894043,2.6666293144226074 0.5171860456466675,2.6666293144226074 c2.3273372650146484,0 4.913266658782959,-1.066651701927185 5.689046382904053,-2.3999667167663574 zm-68.2685546875,-23.466339111328125 c3.6203017234802246,-3.733280897140503 3.3617091178894043,-3.999943971633911 -0.775779128074646,-2.3999667167663574 c-23.79055404663086,8.53321361541748 -72.66463470458984,8.266551971435547 -97.48957061767578,-0.5333258509635925 c-12.412466049194336,-4.533269882202148 -14.222615242004395,-5.866584777832031 -14.222615242004395,-12.266495704650879 c0.25859302282333374,-8.266551971435547 -2.8445231914520264,-9.066539764404297 -5.171860694885254,-1.5999774932861328 c-2.3273372650146484,7.999887943267822 2.585930347442627,12.799819946289062 17.842918395996094,17.333091735839844 c20.428848266601562,5.866584777832031 26.376487731933594,6.399909973144531 62.32091522216797,5.066596031188965 c26.635080337524414,-0.7999887466430664 34.39286804199219,-2.13330340385437 37.49598693847656,-5.599921226501465 zm-194.20335388183594,-6.1332478523254395 c-8.79216194152832,-11.466506004333496 -10.085127830505371,-12.266495704650879 -10.085127830505371,-7.733225345611572 c0,2.3999667167663574 15.256986618041992,18.399742126464844 17.58432388305664,18.399742126464844 c0.25859302282333374,0 -3.103116512298584,-4.799933433532715 -7.499197006225586,-10.66651725769043 zm171.96435546875,0.26666292548179626 c0.775779128074646,-1.3333146572113037 -2.06874418258667,-3.733280897140503 -6.206233024597168,-5.333258628845215 c-4.39608097076416,-1.3333146572113037 -7.757789611816406,-3.999943971633911 -7.757789611816406,-5.333258628845215 c0,-4.533269882202148 22.238996505737305,-3.466618061065674 26.893672943115234,1.066651701927185 c4.654674530029297,4.799933433532715 10.085127830505371,5.333258628845215 8.79216194152832,0.7999887466430664 c-3.103116512298584,-10.13319206237793 -63.87247085571289,-19.19973373413086 -86.1114730834961,-13.066482543945312 c-8.79216194152832,2.3999667167663574 -6.206233024597168,2.6666293144226074 15.515579223632812,1.8666404485702515 c28.962413787841797,-1.3333146572113037 43.960811614990234,1.5999774932861328 25.342113494873047,4.799933433532715 c-5.947638511657715,1.066651701927185 -12.153871536254883,1.3333146572113037 -13.705430030822754,0.26666292548179626 c-1.551558256149292,-0.7999887466430664 -1.8101508617401123,0 -1.034372091293335,2.3999667167663574 c1.2929651737213135,3.466618061065674 -0.5171860456466675,4.26660680770874 -9.567940711975098,4.533269882202148 c-13.446836471557617,0.26666292548179626 -25.342113494873047,3.1999549865722656 -21.72181510925293,5.599921226501465 c2.8445231914520264,1.5999774932861328 13.446836471557617,0.7999887466430664 32.32413101196289,-1.8666404485702515 c9.309349060058594,-1.5999774932861328 12.671056747436523,-1.066651701927185 15.256986618041992,2.3999667167663574 c3.6203017234802246,4.533269882202148 19.653066635131836,5.866584777832031 21.980405807495117,1.8666404485702515 zm-140.67459106445312,-2.13330340385437 c-0.25859302282333374,-3.999943971633911 -7.757789611816406,-12.266495704650879 -9.567940711975098,-10.66651725769043 c-0.775779128074646,1.066651701927185 0.5171860456466675,4.26660680770874 3.103116512298584,7.199899196624756 c4.913266658782959,5.599921226501465 6.464824676513672,6.399909973144531 6.464824676513672,3.466618061065674 zm183.60101318359375,-7.466561794281006 c-1.8101508617401123,-2.13330340385437 -4.13748836517334,-3.999943971633911 -5.430453777313232,-3.999943971633911 c-3.3617091178894043,0 -2.8445231914520264,5.066596031188965 1.034372091293335,9.333203315734863 c4.39608097076416,5.066596031188965 8.79216194152832,0 4.39608097076416,-5.333258628845215 z"
                  id="svg_1" fill="#6894d6"/>
        </g>
    </g>
</svg>
